<svg xmlns="http://www.w3.org/2000/svg" viewBox="0 0 128 128" role="img" aria-label="Greenplum">
  <rect width="128" height="128" fill="#e6e6e6"/>
  <circle cx="64" cy="64" r="59" fill="none" stroke="#76bf00" stroke-width="11"/>
  <path fill="#76bf00" d="M41.7 27.5C26.1 36.4 18.6 52.2 20.4 70.2c1.7 17.5 11.8 34.1 26.4 43.2 9.2 5.7 16.5 3.7 22.2-5.5 12.9-20.8 27.4-39.4 45.2-56.2 6.6-6.2 7.5-13.2 2.5-20.9C103.7 10.8 66.1 13.7 41.7 27.5Z"/>
  <path fill="#e6e6e6" d="M52.1 56.5c8.5-12.9 24.6-15.7 38.2-7.1 8.2 5.2 9.4 11.5 2.4 18.2-12.2 11.6-22.4 24.7-31.3 39-3.2 5.1-7.6 5.8-12.7 2.2-12.7-9-15.3-28-5.7-44.5 2.5-4.3 5.6-6.2 9.1-7.8Z"/>
</svg>
