<svg xmlns="http://www.w3.org/2000/svg" viewBox="0 0 64 64" role="img" aria-label="Greenplum">
  <defs>
    <linearGradient id="gp" x1="10" x2="54" y1="8" y2="56" gradientUnits="userSpaceOnUse">
      <stop stop-color="#6fcf4f"/>
      <stop offset="1" stop-color="#178a45"/>
    </linearGradient>
  </defs>
  <circle cx="32" cy="32" r="30" fill="url(#gp)"/>
  <path d="M18 22.5 32 14l14 8.5v17L32 48l-14-8.5v-17Z" fill="#fff" opacity=".95"/>
  <path d="M32 19.2 41.5 25v11.4L32 42.2l-9.5-5.8V25L32 19.2Z" fill="#1f9d55"/>
  <path d="M27.2 31.6c0-3.4 2.5-5.8 6.1-5.8 1.9 0 3.5.6 4.7 1.8l-2 2.4c-.7-.6-1.5-.9-2.6-.9-1.7 0-2.8 1-2.8 2.6s1.1 2.6 2.7 2.6c.6 0 1.2-.1 1.7-.4v-1h-2.2v-2.5h5.4v5.1c-1.3 1.2-3.1 1.9-5.1 1.9-3.5 0-5.9-2.4-5.9-5.8Z" fill="#fff"/>
</svg>
