<svg xmlns="http://www.w3.org/2000/svg" viewBox="0 0 64 64" role="img" aria-label="PostgreSQL">
  <defs>
    <linearGradient id="pg" x1="10" x2="54" y1="8" y2="56" gradientUnits="userSpaceOnUse">
      <stop stop-color="#4f91c9"/>
      <stop offset="1" stop-color="#245a86"/>
    </linearGradient>
  </defs>
  <circle cx="32" cy="32" r="30" fill="url(#pg)"/>
  <path d="M18.5 28.5c0-9 5.9-15.2 14-15.2 7.9 0 13 5.4 13 13.7 0 5.5-2.1 9.4-5.5 11.9l3.6 7.7c.7 1.5-.4 3.2-2 3.2h-4.2c-1 0-1.8-.6-2.2-1.5l-2.3-5.5h-4.1v4.7c0 1.3-1 2.3-2.3 2.3h-4.4c-1.3 0-2.3-1-2.3-2.3V34.8c-.9-1.8-1.3-3.9-1.3-6.3Z" fill="#fff" opacity=".95"/>
  <path d="M28.8 22.7h4.4c3.1 0 5.1 1.9 5.1 4.9 0 3.1-2 5-5.1 5h-4.4v-9.9Z" fill="#2f6795"/>
  <circle cx="37.8" cy="24.8" r="1.5" fill="#143a59"/>
</svg>
