<svg xmlns="http://www.w3.org/2000/svg" viewBox="0 0 128 128" role="img" aria-label="PostgreSQL">
  <rect width="128" height="128" fill="#e6e6e6"/>
  <path d="M73.4 9.4c13.7-5 31.2-4 42.1 4.7 11.1 8.9 9 28.8 5.8 43.2-2.3 10.5-7.1 23.4-12.5 33.1 7.2-.9 13.1-.9 15.6 3.2 2.2 3.7-.6 9-5.8 12.7-9.2 6.5-20.9 8-32.3 5.7-1.8 7.7-5.7 13.2-13 15.5-7.1 2.3-17.6 1.5-22.8-3.9-3.6-3.7-4.8-9.5-5.2-16.8-11.5 3.5-24.6 2.1-32.8-9.6C4.9 86.1.2 63.6 1.7 38.8 2.7 22 13.7 12 31.9 10.9c8.2-.5 17.2.9 24.3 4.1 4.8-2.8 10.9-4.6 17.2-5.6Z" fill="#000"/>
  <path d="M72.9 14.9c13.9-5.2 30.6-3.1 39.8 4.2 8.7 7 6.6 25.4 3.7 37.3-2.8 11.5-7.7 24.6-13.7 34.6l-2.4 4 4.6-.9c8-1.6 13.7-1.7 15 .6 1 1.7-1.5 4.8-4.6 7-8.9 6.3-20.9 7.2-31.3 4.3l-3.3-.9-.5 3.4c-1.1 7.9-4 12.3-9.3 14-6.6 2.1-15.1 1.1-18.9-2.8-3.6-3.7-4.2-10.7-4.3-19.7v-4.7l-4 2.4c-9.5 5.8-21.2 4.8-27.9-4.8C8.8 83 4.9 61.4 6.4 39.1 7.3 25.4 16 17 32.2 16.3c8.5-.4 17.9 1.4 24.4 5.2l2.2 1.3 2.1-1.5c3.3-2.4 7.3-4.4 12-6.4Z" fill="#fff"/>
  <path d="M13.9 39.5c.8-10.6 6.6-16.2 18.7-16.7 7.8-.3 17.7 1.8 24 5.7 6.2-4.8 14.3-7.3 24.3-7.6 11.2-.4 22.5 2.4 27.2 9.5 4.5 6.8 1.4 23.8-3 36.4-2.4 7-5.7 14.9-9.9 22.1-4.2-8.6-10.7-19.7-13.1-29.2-1.3-5.1-1.3-10.4.1-14 1.1-2.9 4.5-4.2 9-4.3 3.9 0 7.7.5 10.6 1.2-.7-9.1-11.3-20.9-24.5-19.8-10.2.8-16.8 7.6-19.6 18.6-5.1-5.4-13.2-6.6-23-4.7-8 1.5-14 5-18.3 10.6-.8-3.4-2-6-2.5-7.8Z" fill="#336791"/>
  <path d="M41.6 43.7c8.8-2 14.4.7 17 8 2.8 8 2.8 22.9-1.6 33.1-2 4.7-4.7 10.2-6.8 15.1-9.2 5.1-21.5 5.9-28.1-3.5-6.1-8.7-10-30.1-8-47.1.7 3.9 2.3 10.6 4.5 18 3.8 12.8 8.2 23.1 13.2 30.5 2.2 3.2 6 3.4 9.6.1l12.4-13.3c-6.3-4.7-8.7-12.4-7.3-23.2.7-5.6.3-11.5-4.9-17.7Z" fill="#336791"/>
  <path d="M65.4 45.5c1.5-10.6 6.5-16 15-16.8 10.4-1 17.4 6.9 19.3 13-9.1-1.5-17.9-.5-21.3 7.5-4.5 10.6 3.5 26.1 11.7 41.1-2.7 3.2-4.8 6.8-5.6 11.4-4.5-1.7-8.6-5-11.8-9.4-7.4-10.3-11.8-29.9-7.3-46.8Z" fill="#336791"/>
  <path d="M54.7 45.3c2.2 5.1 3.2 11.3 2.8 19-.6 10.1-3.1 18.7-6.6 27.8-1.3 3.4-2.4 6.8-3 10.4 3.6-2.5 7.5-4.6 12.1-5.8 4.1-1.1 7.7.2 9.9 4.3 3.7 6.9-.7 14.4-8.4 19.2 4.1.4 8 .1 11.3-.9 4.7-1.5 6.6-6.3 7.3-13.7.7-8 4.4-14.6 10.3-20.3-5.6-10.6-12.1-23.9-10-34.6.5-2.5 1.6-4.8 3.2-6.7-7.5-.8-14.7.7-20.5 5.1-1.5-1.5-4.3-3.1-8.4-3.8Z" fill="#336791"/>
  <path d="M49.3 48.2c3.9 4.8 4.2 9.2 3.4 14.5-1.5 10.1 1.7 16.5 9 19.8l-7.1 7.7c3.4-8.4 5.5-16.9 5.2-25.4-.2-7.4-1.8-12.7-4.7-16-1.5-1.7-3.3-2.6-5.8-2.6Z" fill="#fff"/>
  <path d="M49.5 46.9c3.3 0 5.2 1.3 6.5 3.3 2.4 3.7 3.5 11.6 2.3 21.1-1.3 9.9-4.9 18.3-8.2 26.2 4.9-2.8 9.1-3.9 13.3-3.5 7.7.7 11.4 6.4 10.3 13.8-.9 5.6-4.2 9.7-8.5 12 6.5-1.1 11.1-4.4 12.3-12.1.8-5.2-.9-10.1-5-13.5-2.2-1.8-5.2-3.1-8.6-3.1-2.1 0-4.3.4-6.7 1.4 3.7-7.8 6.2-16.9 6.3-27.4.1-8-1.1-14.5-4.3-18.6-2.5-3.2-5.9-4.8-9.7-4.8-2.9 0-6.2.7-9.7 2.2 3.9-.4 7.1.2 9.7 3Z" fill="#fff"/>
  <ellipse cx="52.4" cy="43.3" rx="3.5" ry="2.3" fill="#fff" transform="rotate(11 52.4 43.3)"/>
  <ellipse cx="93.7" cy="42.1" rx="3.6" ry="2.2" fill="#fff" transform="rotate(-10 93.7 42.1)"/>
</svg>
